<?xml version="1.0" encoding="utf-8" standalone="no"?>
<!DOCTYPE svg PUBLIC "-//W3C//DTD SVG 1.1//EN"
  "http://www.w3.org/Graphics/SVG/1.1/DTD/svg11.dtd">
<svg xmlns:xlink="http://www.w3.org/1999/xlink" width="608.046424pt" height="319.670783pt" viewBox="0 0 608.046424 319.670783" xmlns="http://www.w3.org/2000/svg" version="1.1">
 <metadata>
  <rdf:RDF xmlns:dc="http://purl.org/dc/elements/1.1/" xmlns:cc="http://creativecommons.org/ns#" xmlns:rdf="http://www.w3.org/1999/02/22-rdf-syntax-ns#">
   <cc:Work>
    <dc:type rdf:resource="http://purl.org/dc/dcmitype/StillImage"/>
    <dc:date>2023-12-10T13:19:30.424884</dc:date>
    <dc:format>image/svg+xml</dc:format>
    <dc:creator>
     <cc:Agent>
      <dc:title>Matplotlib v3.7.2, https://matplotlib.org/</dc:title>
     </cc:Agent>
    </dc:creator>
   </cc:Work>
  </rdf:RDF>
 </metadata>
 <defs>
  <style type="text/css">*{stroke-linejoin: round; stroke-linecap: butt}</style>
 </defs>
 <g id="figure_1">
  <g id="patch_1">
   <path d="M 0 319.670783 
L 608.046424 319.670783 
L 608.046424 0 
L 0 0 
z
" style="fill: #ffffff"/>
  </g>
  <g id="axes_1">
   <g id="patch_2">
    <path d="M 46.446424 280.8 
L 604.446424 280.8 
L 604.446424 3.6 
L 46.446424 3.6 
z
" style="fill: #ffffff"/>
   </g>
   <g id="matplotlib.axis_1">
    <g id="xtick_1">
     <g id="line2d_1">
      <path d="M 46.446424 280.8 
L 46.446424 3.6 
" clip-path="url(#p30699e8f7d)" style="fill: none; stroke: #b0b0b0; stroke-width: 0.5; stroke-linecap: square"/>
     </g>
     <g id="line2d_2">
      <defs>
       <path id="mc5f4fbcf06" d="M 0 0 
L 0 -5 
" style="stroke: #000000"/>
      </defs>
      <g>
       <use xlink:href="#mc5f4fbcf06" x="46.446424" y="280.8" style="stroke: #000000"/>
      </g>
     </g>
     <g id="line2d_3">
      <defs>
       <path id="m1da7fc54d7" d="M 0 0 
L 0 5 
" style="stroke: #000000"/>
      </defs>
      <g>
       <use xlink:href="#m1da7fc54d7" x="46.446424" y="3.6" style="stroke: #000000"/>
      </g>
     </g>
     <g id="text_1">
      <!-- $\mathdefault{10^{0}}$ -->
      <g transform="translate(36.515001 294.677725) scale(0.15 -0.15)">
       <defs>
        <path id="CMR17-31" d="M 1702 4083 
C 1702 4217 1696 4224 1606 4224 
C 1357 3927 979 3833 621 3820 
C 602 3820 570 3820 563 3808 
C 557 3795 557 3782 557 3648 
C 755 3648 1088 3686 1344 3839 
L 1344 467 
C 1344 243 1331 166 781 166 
L 589 166 
L 589 0 
C 896 6 1216 12 1523 12 
C 1830 12 2150 6 2458 0 
L 2458 166 
L 2266 166 
C 1715 166 1702 236 1702 467 
L 1702 4083 
z
" transform="scale(0.015625)"/>
        <path id="CMR17-30" d="M 2688 2038 
C 2688 2430 2682 3099 2413 3613 
C 2176 4063 1798 4224 1466 4224 
C 1158 4224 768 4082 525 3620 
C 269 3137 243 2539 243 2038 
C 243 1671 250 1112 448 623 
C 723 -39 1216 -128 1466 -128 
C 1760 -128 2208 -7 2470 604 
C 2662 1048 2688 1568 2688 2038 
z
M 1466 -26 
C 1056 -26 813 328 723 816 
C 653 1196 653 1749 653 2109 
C 653 2604 653 3015 736 3407 
C 858 3954 1216 4121 1466 4121 
C 1728 4121 2067 3947 2189 3420 
C 2272 3054 2278 2623 2278 2109 
C 2278 1691 2278 1176 2202 797 
C 2067 96 1690 -26 1466 -26 
z
" transform="scale(0.015625)"/>
       </defs>
       <use xlink:href="#CMR17-31" transform="scale(0.996264)"/>
       <use xlink:href="#CMR17-30" transform="translate(45.690477 0) scale(0.996264)"/>
       <use xlink:href="#CMR17-30" transform="translate(91.380954 36.153639) scale(0.697382)"/>
      </g>
     </g>
    </g>
    <g id="xtick_2">
     <g id="line2d_4">
      <path d="M 302.869494 280.8 
L 302.869494 3.6 
" clip-path="url(#p30699e8f7d)" style="fill: none; stroke: #b0b0b0; stroke-width: 0.5; stroke-linecap: square"/>
     </g>
     <g id="line2d_5">
      <g>
       <use xlink:href="#mc5f4fbcf06" x="302.869494" y="280.8" style="stroke: #000000"/>
      </g>
     </g>
     <g id="line2d_6">
      <g>
       <use xlink:href="#m1da7fc54d7" x="302.869494" y="3.6" style="stroke: #000000"/>
      </g>
     </g>
     <g id="text_2">
      <!-- $\mathdefault{10^{1}}$ -->
      <g transform="translate(292.93807 294.677725) scale(0.15 -0.15)">
       <use xlink:href="#CMR17-31" transform="scale(0.996264)"/>
       <use xlink:href="#CMR17-30" transform="translate(45.690477 0) scale(0.996264)"/>
       <use xlink:href="#CMR17-31" transform="translate(91.380954 36.153639) scale(0.697382)"/>
      </g>
     </g>
    </g>
    <g id="xtick_3">
     <g id="line2d_7">
      <path d="M 559.292563 280.8 
L 559.292563 3.6 
" clip-path="url(#p30699e8f7d)" style="fill: none; stroke: #b0b0b0; stroke-width: 0.5; stroke-linecap: square"/>
     </g>
     <g id="line2d_8">
      <g>
       <use xlink:href="#mc5f4fbcf06" x="559.292563" y="280.8" style="stroke: #000000"/>
      </g>
     </g>
     <g id="line2d_9">
      <g>
       <use xlink:href="#m1da7fc54d7" x="559.292563" y="3.6" style="stroke: #000000"/>
      </g>
     </g>
     <g id="text_3">
      <!-- $\mathdefault{10^{2}}$ -->
      <g transform="translate(549.36114 294.677725) scale(0.15 -0.15)">
       <defs>
        <path id="CMR17-32" d="M 2669 990 
L 2554 990 
C 2490 537 2438 460 2413 422 
C 2381 371 1920 371 1830 371 
L 602 371 
C 832 620 1280 1073 1824 1596 
C 2214 1966 2669 2400 2669 3033 
C 2669 3788 2067 4224 1395 4224 
C 691 4224 262 3603 262 3027 
C 262 2777 448 2745 525 2745 
C 589 2745 781 2783 781 3007 
C 781 3206 614 3264 525 3264 
C 486 3264 448 3257 422 3244 
C 544 3788 915 4057 1306 4057 
C 1862 4057 2227 3616 2227 3033 
C 2227 2477 1901 1998 1536 1583 
L 262 147 
L 262 0 
L 2515 0 
L 2669 990 
z
" transform="scale(0.015625)"/>
       </defs>
       <use xlink:href="#CMR17-31" transform="scale(0.996264)"/>
       <use xlink:href="#CMR17-30" transform="translate(45.690477 0) scale(0.996264)"/>
       <use xlink:href="#CMR17-32" transform="translate(91.380954 36.153639) scale(0.697382)"/>
      </g>
     </g>
    </g>
    <g id="xtick_4">
     <g id="line2d_10">
      <defs>
       <path id="m46bc52c1d4" d="M 0 0 
L 0 -3 
" style="stroke: #000000"/>
      </defs>
      <g>
       <use xlink:href="#m46bc52c1d4" x="123.63746" y="280.8" style="stroke: #000000"/>
      </g>
     </g>
     <g id="line2d_11">
      <defs>
       <path id="macdda9884e" d="M 0 0 
L 0 3 
" style="stroke: #000000"/>
      </defs>
      <g>
       <use xlink:href="#macdda9884e" x="123.63746" y="3.6" style="stroke: #000000"/>
      </g>
     </g>
    </g>
    <g id="xtick_5">
     <g id="line2d_12">
      <g>
       <use xlink:href="#m46bc52c1d4" x="168.791321" y="280.8" style="stroke: #000000"/>
      </g>
     </g>
     <g id="line2d_13">
      <g>
       <use xlink:href="#macdda9884e" x="168.791321" y="3.6" style="stroke: #000000"/>
      </g>
     </g>
    </g>
    <g id="xtick_6">
     <g id="line2d_14">
      <g>
       <use xlink:href="#m46bc52c1d4" x="200.828495" y="280.8" style="stroke: #000000"/>
      </g>
     </g>
     <g id="line2d_15">
      <g>
       <use xlink:href="#macdda9884e" x="200.828495" y="3.6" style="stroke: #000000"/>
      </g>
     </g>
    </g>
    <g id="xtick_7">
     <g id="line2d_16">
      <g>
       <use xlink:href="#m46bc52c1d4" x="225.678458" y="280.8" style="stroke: #000000"/>
      </g>
     </g>
     <g id="line2d_17">
      <g>
       <use xlink:href="#macdda9884e" x="225.678458" y="3.6" style="stroke: #000000"/>
      </g>
     </g>
    </g>
    <g id="xtick_8">
     <g id="line2d_18">
      <g>
       <use xlink:href="#m46bc52c1d4" x="245.982356" y="280.8" style="stroke: #000000"/>
      </g>
     </g>
     <g id="line2d_19">
      <g>
       <use xlink:href="#macdda9884e" x="245.982356" y="3.6" style="stroke: #000000"/>
      </g>
     </g>
    </g>
    <g id="xtick_9">
     <g id="line2d_20">
      <g>
       <use xlink:href="#m46bc52c1d4" x="263.149058" y="280.8" style="stroke: #000000"/>
      </g>
     </g>
     <g id="line2d_21">
      <g>
       <use xlink:href="#macdda9884e" x="263.149058" y="3.6" style="stroke: #000000"/>
      </g>
     </g>
    </g>
    <g id="xtick_10">
     <g id="line2d_22">
      <g>
       <use xlink:href="#m46bc52c1d4" x="278.019531" y="280.8" style="stroke: #000000"/>
      </g>
     </g>
     <g id="line2d_23">
      <g>
       <use xlink:href="#macdda9884e" x="278.019531" y="3.6" style="stroke: #000000"/>
      </g>
     </g>
    </g>
    <g id="xtick_11">
     <g id="line2d_24">
      <g>
       <use xlink:href="#m46bc52c1d4" x="291.136218" y="280.8" style="stroke: #000000"/>
      </g>
     </g>
     <g id="line2d_25">
      <g>
       <use xlink:href="#macdda9884e" x="291.136218" y="3.6" style="stroke: #000000"/>
      </g>
     </g>
    </g>
    <g id="xtick_12">
     <g id="line2d_26">
      <g>
       <use xlink:href="#m46bc52c1d4" x="380.060529" y="280.8" style="stroke: #000000"/>
      </g>
     </g>
     <g id="line2d_27">
      <g>
       <use xlink:href="#macdda9884e" x="380.060529" y="3.6" style="stroke: #000000"/>
      </g>
     </g>
    </g>
    <g id="xtick_13">
     <g id="line2d_28">
      <g>
       <use xlink:href="#m46bc52c1d4" x="425.21439" y="280.8" style="stroke: #000000"/>
      </g>
     </g>
     <g id="line2d_29">
      <g>
       <use xlink:href="#macdda9884e" x="425.21439" y="3.6" style="stroke: #000000"/>
      </g>
     </g>
    </g>
    <g id="xtick_14">
     <g id="line2d_30">
      <g>
       <use xlink:href="#m46bc52c1d4" x="457.251565" y="280.8" style="stroke: #000000"/>
      </g>
     </g>
     <g id="line2d_31">
      <g>
       <use xlink:href="#macdda9884e" x="457.251565" y="3.6" style="stroke: #000000"/>
      </g>
     </g>
    </g>
    <g id="xtick_15">
     <g id="line2d_32">
      <g>
       <use xlink:href="#m46bc52c1d4" x="482.101528" y="280.8" style="stroke: #000000"/>
      </g>
     </g>
     <g id="line2d_33">
      <g>
       <use xlink:href="#macdda9884e" x="482.101528" y="3.6" style="stroke: #000000"/>
      </g>
     </g>
    </g>
    <g id="xtick_16">
     <g id="line2d_34">
      <g>
       <use xlink:href="#m46bc52c1d4" x="502.405426" y="280.8" style="stroke: #000000"/>
      </g>
     </g>
     <g id="line2d_35">
      <g>
       <use xlink:href="#macdda9884e" x="502.405426" y="3.6" style="stroke: #000000"/>
      </g>
     </g>
    </g>
    <g id="xtick_17">
     <g id="line2d_36">
      <g>
       <use xlink:href="#m46bc52c1d4" x="519.572127" y="280.8" style="stroke: #000000"/>
      </g>
     </g>
     <g id="line2d_37">
      <g>
       <use xlink:href="#macdda9884e" x="519.572127" y="3.6" style="stroke: #000000"/>
      </g>
     </g>
    </g>
    <g id="xtick_18">
     <g id="line2d_38">
      <g>
       <use xlink:href="#m46bc52c1d4" x="534.4426" y="280.8" style="stroke: #000000"/>
      </g>
     </g>
     <g id="line2d_39">
      <g>
       <use xlink:href="#macdda9884e" x="534.4426" y="3.6" style="stroke: #000000"/>
      </g>
     </g>
    </g>
    <g id="xtick_19">
     <g id="line2d_40">
      <g>
       <use xlink:href="#m46bc52c1d4" x="547.559287" y="280.8" style="stroke: #000000"/>
      </g>
     </g>
     <g id="line2d_41">
      <g>
       <use xlink:href="#macdda9884e" x="547.559287" y="3.6" style="stroke: #000000"/>
      </g>
     </g>
    </g>
    <g id="text_4">
     <!-- $N_{\rm cpu}$ -->
     <g transform="translate(311.451663 311.795176) scale(0.15 -0.15)">
      <defs>
       <path id="CMMI12-4e" d="M 4736 3682 
C 4806 3956 4909 4147 5395 4166 
C 5414 4166 5491 4172 5491 4281 
C 5491 4352 5434 4352 5408 4352 
C 5280 4352 4954 4339 4826 4339 
L 4518 4339 
C 4429 4339 4314 4352 4224 4352 
C 4186 4352 4109 4352 4109 4230 
C 4109 4166 4160 4166 4205 4166 
C 4589 4153 4614 4007 4614 3892 
C 4614 3835 4608 3816 4589 3726 
L 3866 854 
L 2496 4243 
C 2451 4345 2445 4352 2304 4352 
L 1523 4352 
C 1395 4352 1338 4352 1338 4230 
C 1338 4166 1382 4166 1504 4166 
C 1536 4166 1914 4166 1914 4109 
C 1914 4096 1901 4045 1894 4026 
L 1043 650 
C 966 338 813 204 390 185 
C 358 185 294 179 294 64 
C 294 0 358 0 378 0 
C 506 0 832 12 960 12 
L 1267 12 
C 1357 12 1466 0 1555 0 
C 1600 0 1670 0 1670 121 
C 1670 179 1606 185 1581 185 
C 1370 191 1165 230 1165 459 
C 1165 510 1178 567 1190 618 
L 2054 4026 
C 2093 3962 2093 3949 2118 3892 
L 3642 115 
C 3674 38 3686 0 3744 0 
C 3808 0 3814 19 3840 128 
L 4736 3682 
z
" transform="scale(0.015625)"/>
       <path id="CMR17-63" d="M 2234 2240 
C 2112 2240 1933 2240 1933 2015 
C 1933 1836 2080 1785 2163 1785 
C 2208 1785 2394 1804 2394 2028 
C 2394 2476 1958 2816 1466 2816 
C 787 2816 211 2201 211 1379 
C 211 521 813 -64 1466 -64 
C 2259 -64 2458 676 2458 747 
C 2458 773 2451 792 2406 792 
C 2362 792 2355 786 2330 702 
C 2163 180 1798 51 1523 51 
C 1114 51 621 431 621 1385 
C 621 2358 1094 2700 1472 2700 
C 1722 2700 2093 2582 2234 2240 
z
" transform="scale(0.015625)"/>
       <path id="CMR17-70" d="M 1408 -1114 
C 998 -1114 973 -1088 973 -834 
L 973 380 
C 1158 109 1427 -64 1766 -64 
C 2406 -64 3053 503 3053 1382 
C 3053 2196 2496 2816 1837 2816 
C 1453 2816 1139 2603 960 2345 
L 960 2816 
L 198 2745 
L 198 2577 
C 576 2577 634 2539 634 2228 
L 634 -834 
C 634 -1081 608 -1114 198 -1114 
L 198 -1280 
C 352 -1268 634 -1268 800 -1268 
C 966 -1268 1254 -1268 1408 -1280 
L 1408 -1114 
z
M 973 2015 
C 973 2106 973 2241 1222 2481 
C 1254 2506 1472 2700 1792 2700 
C 2259 2700 2643 2112 2643 1376 
C 2643 639 2234 38 1728 38 
C 1498 38 1248 148 1056 451 
C 973 594 973 632 973 736 
L 973 2015 
z
" transform="scale(0.015625)"/>
       <path id="CMR17-75" d="M 1882 2745 
L 1882 2579 
C 2259 2579 2317 2540 2317 2229 
L 2317 1053 
C 2317 510 2029 38 1555 38 
C 1030 38 986 355 986 691 
L 986 2816 
L 211 2745 
L 211 2579 
C 467 2579 640 2579 646 2320 
L 646 1079 
C 646 646 646 368 813 187 
C 896 103 1056 -64 1517 -64 
C 2061 -64 2272 400 2323 536 
L 2330 536 
L 2330 -64 
L 3091 -13 
L 3091 154 
C 2714 154 2656 193 2656 503 
L 2656 2816 
L 1882 2745 
z
" transform="scale(0.015625)"/>
      </defs>
      <use xlink:href="#CMMI12-4e" transform="scale(0.996264)"/>
      <use xlink:href="#CMR17-63" transform="translate(78.115119 -14.943915) scale(0.697382)"/>
      <use xlink:href="#CMR17-70" transform="translate(106.45495 -14.943915) scale(0.697382)"/>
      <use xlink:href="#CMR17-75" transform="translate(142.081559 -14.943915) scale(0.697382)"/>
     </g>
    </g>
   </g>
   <g id="matplotlib.axis_2">
    <g id="ytick_1">
     <g id="line2d_42">
      <path d="M 46.446424 234.844528 
L 604.446424 234.844528 
" clip-path="url(#p30699e8f7d)" style="fill: none; stroke: #b0b0b0; stroke-width: 0.5; stroke-linecap: square"/>
     </g>
     <g id="line2d_43">
      <defs>
       <path id="mf7c20b2805" d="M 0 0 
L 5 0 
" style="stroke: #000000"/>
      </defs>
      <g>
       <use xlink:href="#mf7c20b2805" x="46.446424" y="234.844528" style="stroke: #000000"/>
      </g>
     </g>
     <g id="line2d_44">
      <defs>
       <path id="m3773db2842" d="M 0 0 
L -5 0 
" style="stroke: #000000"/>
      </defs>
      <g>
       <use xlink:href="#m3773db2842" x="604.446424" y="234.844528" style="stroke: #000000"/>
      </g>
     </g>
     <g id="text_5">
      <!-- $\mathdefault{10^{6}}$ -->
      <g transform="translate(23.083578 240.033391) scale(0.15 -0.15)">
       <defs>
        <path id="CMR17-36" d="M 678 2198 
C 678 3712 1395 4076 1811 4076 
C 1946 4076 2272 4049 2400 3782 
C 2298 3782 2106 3782 2106 3558 
C 2106 3385 2246 3328 2336 3328 
C 2394 3328 2566 3353 2566 3571 
C 2566 3987 2246 4224 1805 4224 
C 1043 4224 243 3411 243 2011 
C 243 257 966 -128 1478 -128 
C 2099 -128 2688 431 2688 1295 
C 2688 2101 2170 2688 1517 2688 
C 1126 2688 838 2430 678 1979 
L 678 2198 
z
M 1478 25 
C 691 25 691 1212 691 1450 
C 691 1914 909 2585 1504 2585 
C 1613 2585 1926 2585 2138 2140 
C 2253 1889 2253 1624 2253 1302 
C 2253 954 2253 696 2118 438 
C 1978 173 1773 25 1478 25 
z
" transform="scale(0.015625)"/>
       </defs>
       <use xlink:href="#CMR17-31" transform="scale(0.996264)"/>
       <use xlink:href="#CMR17-30" transform="translate(45.690477 0) scale(0.996264)"/>
       <use xlink:href="#CMR17-36" transform="translate(91.380954 36.153639) scale(0.697382)"/>
      </g>
     </g>
    </g>
    <g id="ytick_2">
     <g id="line2d_45">
      <path d="M 46.446424 88.578265 
L 604.446424 88.578265 
" clip-path="url(#p30699e8f7d)" style="fill: none; stroke: #b0b0b0; stroke-width: 0.5; stroke-linecap: square"/>
     </g>
     <g id="line2d_46">
      <g>
       <use xlink:href="#mf7c20b2805" x="46.446424" y="88.578265" style="stroke: #000000"/>
      </g>
     </g>
     <g id="line2d_47">
      <g>
       <use xlink:href="#m3773db2842" x="604.446424" y="88.578265" style="stroke: #000000"/>
      </g>
     </g>
     <g id="text_6">
      <!-- $\mathdefault{10^{7}}$ -->
      <g transform="translate(23.083578 93.767128) scale(0.15 -0.15)">
       <defs>
        <path id="CMR17-37" d="M 2886 3955 
L 2886 4096 
L 1382 4096 
C 634 4096 621 4166 595 4288 
L 480 4288 
L 294 3104 
L 410 3104 
C 429 3226 474 3552 550 3673 
C 589 3724 1062 3724 1171 3724 
L 2579 3724 
L 1869 2670 
C 1395 1961 1069 1003 1069 166 
C 1069 89 1069 -128 1299 -128 
C 1530 -128 1530 89 1530 172 
L 1530 466 
C 1530 1514 1709 2204 2003 2644 
L 2886 3955 
z
" transform="scale(0.015625)"/>
       </defs>
       <use xlink:href="#CMR17-31" transform="scale(0.996264)"/>
       <use xlink:href="#CMR17-30" transform="translate(45.690477 0) scale(0.996264)"/>
       <use xlink:href="#CMR17-37" transform="translate(91.380954 36.153639) scale(0.697382)"/>
      </g>
     </g>
    </g>
    <g id="ytick_3">
     <g id="line2d_48">
      <defs>
       <path id="m64bb96ca36" d="M 0 0 
L 3 0 
" style="stroke: #000000"/>
      </defs>
      <g>
       <use xlink:href="#m64bb96ca36" x="46.446424" y="278.875061" style="stroke: #000000"/>
      </g>
     </g>
     <g id="line2d_49">
      <defs>
       <path id="mfcf8fda5fa" d="M 0 0 
L -3 0 
" style="stroke: #000000"/>
      </defs>
      <g>
       <use xlink:href="#mfcf8fda5fa" x="604.446424" y="278.875061" style="stroke: #000000"/>
      </g>
     </g>
    </g>
    <g id="ytick_4">
     <g id="line2d_50">
      <g>
       <use xlink:href="#m64bb96ca36" x="46.446424" y="267.293516" style="stroke: #000000"/>
      </g>
     </g>
     <g id="line2d_51">
      <g>
       <use xlink:href="#mfcf8fda5fa" x="604.446424" y="267.293516" style="stroke: #000000"/>
      </g>
     </g>
    </g>
    <g id="ytick_5">
     <g id="line2d_52">
      <g>
       <use xlink:href="#m64bb96ca36" x="46.446424" y="257.501459" style="stroke: #000000"/>
      </g>
     </g>
     <g id="line2d_53">
      <g>
       <use xlink:href="#mfcf8fda5fa" x="604.446424" y="257.501459" style="stroke: #000000"/>
      </g>
     </g>
    </g>
    <g id="ytick_6">
     <g id="line2d_54">
      <g>
       <use xlink:href="#m64bb96ca36" x="46.446424" y="249.019194" style="stroke: #000000"/>
      </g>
     </g>
     <g id="line2d_55">
      <g>
       <use xlink:href="#mfcf8fda5fa" x="604.446424" y="249.019194" style="stroke: #000000"/>
      </g>
     </g>
    </g>
    <g id="ytick_7">
     <g id="line2d_56">
      <g>
       <use xlink:href="#m64bb96ca36" x="46.446424" y="241.537305" style="stroke: #000000"/>
      </g>
     </g>
     <g id="line2d_57">
      <g>
       <use xlink:href="#mfcf8fda5fa" x="604.446424" y="241.537305" style="stroke: #000000"/>
      </g>
     </g>
    </g>
    <g id="ytick_8">
     <g id="line2d_58">
      <g>
       <use xlink:href="#m64bb96ca36" x="46.446424" y="190.813996" style="stroke: #000000"/>
      </g>
     </g>
     <g id="line2d_59">
      <g>
       <use xlink:href="#mfcf8fda5fa" x="604.446424" y="190.813996" style="stroke: #000000"/>
      </g>
     </g>
    </g>
    <g id="ytick_9">
     <g id="line2d_60">
      <g>
       <use xlink:href="#m64bb96ca36" x="46.446424" y="165.057785" style="stroke: #000000"/>
      </g>
     </g>
     <g id="line2d_61">
      <g>
       <use xlink:href="#mfcf8fda5fa" x="604.446424" y="165.057785" style="stroke: #000000"/>
      </g>
     </g>
    </g>
    <g id="ytick_10">
     <g id="line2d_62">
      <g>
       <use xlink:href="#m64bb96ca36" x="46.446424" y="146.783463" style="stroke: #000000"/>
      </g>
     </g>
     <g id="line2d_63">
      <g>
       <use xlink:href="#mfcf8fda5fa" x="604.446424" y="146.783463" style="stroke: #000000"/>
      </g>
     </g>
    </g>
    <g id="ytick_11">
     <g id="line2d_64">
      <g>
       <use xlink:href="#m64bb96ca36" x="46.446424" y="132.608798" style="stroke: #000000"/>
      </g>
     </g>
     <g id="line2d_65">
      <g>
       <use xlink:href="#mfcf8fda5fa" x="604.446424" y="132.608798" style="stroke: #000000"/>
      </g>
     </g>
    </g>
    <g id="ytick_12">
     <g id="line2d_66">
      <g>
       <use xlink:href="#m64bb96ca36" x="46.446424" y="121.027253" style="stroke: #000000"/>
      </g>
     </g>
     <g id="line2d_67">
      <g>
       <use xlink:href="#mfcf8fda5fa" x="604.446424" y="121.027253" style="stroke: #000000"/>
      </g>
     </g>
    </g>
    <g id="ytick_13">
     <g id="line2d_68">
      <g>
       <use xlink:href="#m64bb96ca36" x="46.446424" y="111.235196" style="stroke: #000000"/>
      </g>
     </g>
     <g id="line2d_69">
      <g>
       <use xlink:href="#mfcf8fda5fa" x="604.446424" y="111.235196" style="stroke: #000000"/>
      </g>
     </g>
    </g>
    <g id="ytick_14">
     <g id="line2d_70">
      <g>
       <use xlink:href="#m64bb96ca36" x="46.446424" y="102.752931" style="stroke: #000000"/>
      </g>
     </g>
     <g id="line2d_71">
      <g>
       <use xlink:href="#mfcf8fda5fa" x="604.446424" y="102.752931" style="stroke: #000000"/>
      </g>
     </g>
    </g>
    <g id="ytick_15">
     <g id="line2d_72">
      <g>
       <use xlink:href="#m64bb96ca36" x="46.446424" y="95.271043" style="stroke: #000000"/>
      </g>
     </g>
     <g id="line2d_73">
      <g>
       <use xlink:href="#mfcf8fda5fa" x="604.446424" y="95.271043" style="stroke: #000000"/>
      </g>
     </g>
    </g>
    <g id="ytick_16">
     <g id="line2d_74">
      <g>
       <use xlink:href="#m64bb96ca36" x="46.446424" y="44.547733" style="stroke: #000000"/>
      </g>
     </g>
     <g id="line2d_75">
      <g>
       <use xlink:href="#mfcf8fda5fa" x="604.446424" y="44.547733" style="stroke: #000000"/>
      </g>
     </g>
    </g>
    <g id="ytick_17">
     <g id="line2d_76">
      <g>
       <use xlink:href="#m64bb96ca36" x="46.446424" y="18.791523" style="stroke: #000000"/>
      </g>
     </g>
     <g id="line2d_77">
      <g>
       <use xlink:href="#mfcf8fda5fa" x="604.446424" y="18.791523" style="stroke: #000000"/>
      </g>
     </g>
    </g>
    <g id="text_7">
     <!-- $N_{\rm part} / (t_{\rm step})$ -->
     <g transform="translate(14.80797 179.478297) rotate(-90) scale(0.15 -0.15)">
      <defs>
       <path id="CMR17-61" d="M 2304 1656 
C 2304 2048 2304 2275 2035 2534 
C 1798 2751 1523 2816 1306 2816 
C 800 2816 435 2408 435 1977 
C 435 1740 627 1728 666 1728 
C 749 1728 896 1779 896 1958 
C 896 2118 774 2188 666 2188 
C 640 2188 608 2182 589 2176 
C 723 2594 1069 2713 1293 2713 
C 1613 2713 1965 2421 1965 1875 
L 1965 1632 
C 1587 1619 1133 1568 774 1373 
C 371 1147 256 822 256 576 
C 256 77 832 -64 1171 -64 
C 1523 -64 1850 135 1990 505 
C 2003 219 2182 -39 2464 -39 
C 2598 -39 2938 51 2938 563 
L 2938 926 
L 2822 926 
L 2822 557 
C 2822 161 2650 109 2566 109 
C 2304 109 2304 446 2304 732 
L 2304 1656 
z
M 1965 887 
C 1965 323 1568 38 1216 38 
C 896 38 646 278 646 576 
C 646 771 730 1114 1101 1322 
C 1408 1497 1760 1523 1965 1536 
L 1965 887 
z
" transform="scale(0.015625)"/>
       <path id="CMR17-72" d="M 960 1517 
C 960 2134 1222 2713 1702 2713 
C 1747 2713 1792 2707 1837 2687 
C 1837 2687 1696 2642 1696 2475 
C 1696 2321 1818 2257 1914 2257 
C 1990 2257 2131 2302 2131 2482 
C 2131 2687 1926 2816 1709 2816 
C 1222 2816 1011 2340 947 2115 
L 941 2115 
L 941 2816 
L 198 2745 
L 198 2578 
C 576 2578 634 2540 634 2231 
L 634 443 
C 634 198 608 166 198 166 
L 198 0 
C 352 12 646 12 813 12 
C 998 12 1325 12 1498 0 
L 1498 166 
C 1037 166 960 166 960 455 
L 960 1517 
z
" transform="scale(0.015625)"/>
       <path id="CMR17-74" d="M 966 2585 
L 1862 2585 
L 1862 2752 
L 966 2752 
L 966 3968 
L 851 3968 
C 838 3292 614 2700 70 2687 
L 70 2585 
L 627 2585 
L 627 778 
C 627 655 627 -64 1370 -64 
C 1747 -64 1965 308 1965 784 
L 1965 1151 
L 1850 1151 
L 1850 790 
C 1850 347 1677 51 1408 51 
C 1222 51 966 179 966 765 
L 966 2585 
z
" transform="scale(0.015625)"/>
       <path id="CMMI12-3d" d="M 2746 4563 
C 2746 4569 2784 4665 2784 4678 
C 2784 4755 2720 4800 2669 4800 
C 2637 4800 2579 4800 2528 4659 
L 384 -1364 
C 384 -1370 346 -1466 346 -1479 
C 346 -1556 410 -1600 461 -1600 
C 499 -1600 557 -1594 602 -1460 
L 2746 4563 
z
" transform="scale(0.015625)"/>
       <path id="CMR17-28" d="M 1958 -1562 
C 1958 -1556 1958 -1543 1939 -1524 
C 1645 -1223 858 -403 858 1596 
C 858 3595 1632 4408 1946 4729 
C 1946 4735 1958 4748 1958 4767 
C 1958 4787 1939 4800 1914 4800 
C 1843 4800 1299 4325 986 3620 
C 666 2909 576 2218 576 1603 
C 576 1141 621 360 1005 -467 
C 1312 -1133 1837 -1600 1914 -1600 
C 1946 -1600 1958 -1588 1958 -1562 
z
" transform="scale(0.015625)"/>
       <path id="CMMI12-74" d="M 1286 2566 
L 1875 2566 
C 1997 2566 2061 2566 2061 2681 
C 2061 2752 2022 2752 1894 2752 
L 1331 2752 
L 1568 3664 
C 1594 3752 1594 3764 1594 3808 
C 1594 3910 1510 3968 1427 3968 
C 1376 3968 1229 3948 1178 3746 
L 928 2752 
L 326 2752 
C 198 2752 141 2752 141 2630 
C 141 2566 186 2566 307 2566 
L 877 2566 
L 454 881 
C 403 657 384 593 384 510 
C 384 210 595 -64 954 -64 
C 1600 -64 1946 868 1946 913 
C 1946 951 1920 970 1882 970 
C 1869 970 1843 970 1830 944 
C 1824 938 1818 932 1773 830 
C 1638 510 1344 64 973 64 
C 781 64 768 223 768 364 
C 768 370 768 491 787 568 
L 1286 2566 
z
" transform="scale(0.015625)"/>
       <path id="CMR17-73" d="M 1978 2688 
C 1978 2803 1971 2809 1933 2809 
C 1907 2809 1901 2803 1824 2707 
C 1805 2681 1747 2617 1728 2592 
C 1523 2809 1235 2816 1126 2816 
C 416 2816 160 2444 160 2073 
C 160 1497 813 1363 998 1324 
C 1402 1241 1542 1216 1677 1100 
C 1760 1024 1901 883 1901 652 
C 1901 384 1747 38 1158 38 
C 602 38 403 460 288 1024 
C 269 1113 269 1120 218 1120 
C 166 1120 160 1113 160 985 
L 160 64 
C 160 -52 166 -58 205 -58 
C 237 -58 243 -52 275 0 
C 314 57 410 211 448 275 
C 576 102 800 -64 1158 -64 
C 1792 -64 2131 281 2131 780 
C 2131 1107 1958 1280 1875 1356 
C 1683 1555 1459 1600 1190 1651 
C 838 1728 390 1817 390 2208 
C 390 2374 480 2726 1126 2726 
C 1811 2726 1850 2086 1862 1881 
C 1869 1849 1901 1843 1920 1843 
C 1978 1843 1978 1862 1978 1971 
L 1978 2688 
z
" transform="scale(0.015625)"/>
       <path id="CMR17-65" d="M 2438 1503 
C 2464 1529 2464 1542 2464 1606 
C 2464 2251 2118 2816 1389 2816 
C 710 2816 173 2175 173 1394 
C 173 554 781 -64 1459 -64 
C 2176 -64 2458 619 2458 755 
C 2458 800 2419 800 2406 800 
C 2362 800 2355 787 2330 709 
C 2189 270 1837 51 1504 51 
C 1229 51 954 206 781 490 
C 582 819 582 1200 582 1503 
L 2438 1503 
z
M 589 1600 
C 634 2511 1126 2713 1382 2713 
C 1818 2713 2112 2308 2118 1600 
L 589 1600 
z
" transform="scale(0.015625)"/>
       <path id="CMR17-29" d="M 1683 1596 
C 1683 2057 1638 2839 1254 3665 
C 947 4332 422 4800 346 4800 
C 326 4800 301 4793 301 4761 
C 301 4748 307 4742 314 4729 
C 621 4408 1402 3595 1402 1603 
C 1402 -396 627 -1210 314 -1530 
C 307 -1543 301 -1549 301 -1562 
C 301 -1594 326 -1600 346 -1600 
C 416 -1600 960 -1127 1274 -422 
C 1594 289 1683 981 1683 1596 
z
" transform="scale(0.015625)"/>
      </defs>
      <use xlink:href="#CMMI12-4e" transform="scale(0.996264)"/>
      <use xlink:href="#CMR17-70" transform="translate(78.115119 -14.943915) scale(0.697382)"/>
      <use xlink:href="#CMR17-61" transform="translate(113.741727 -14.943915) scale(0.697382)"/>
      <use xlink:href="#CMR17-72" transform="translate(145.724909 -14.943915) scale(0.697382)"/>
      <use xlink:href="#CMR17-74" transform="translate(170.42133 -14.943915) scale(0.697382)"/>
      <use xlink:href="#CMMI12-3d" transform="translate(195.615882 0) scale(0.996264)"/>
      <use xlink:href="#CMR17-28" transform="translate(244.390801 0) scale(0.996264)"/>
      <use xlink:href="#CMMI12-74" transform="translate(279.671569 0) scale(0.996264)"/>
      <use xlink:href="#CMR17-73" transform="translate(314.897899 -14.943915) scale(0.697382)"/>
      <use xlink:href="#CMR17-74" transform="translate(339.958721 -14.943915) scale(0.697382)"/>
      <use xlink:href="#CMR17-65" transform="translate(364.655141 -14.943915) scale(0.697382)"/>
      <use xlink:href="#CMR17-70" transform="translate(392.994973 -14.943915) scale(0.697382)"/>
      <use xlink:href="#CMR17-29" transform="translate(429.119713 0) scale(0.996264)"/>
     </g>
    </g>
   </g>
   <g id="line2d_78">
    <path d="M 123.63746 236.062356 
L 200.828495 189.50782 
L 278.019531 152.47342 
L 355.210566 106.198699 
" clip-path="url(#p30699e8f7d)" style="fill: none; stroke: #0c5da5; stroke-linecap: square"/>
   </g>
   <g id="line2d_79">
    <path d="M 123.63746 268.2 
L 200.828495 224.240181 
L 245.982356 206.878312 
L 278.019531 187.22324 
L 302.869494 174.299237 
L 323.173392 161.584191 
L 340.340093 179.673541 
L 355.210566 136.750309 
L 380.060529 134.593715 
L 400.364427 116.162685 
L 417.531129 116.290807 
L 432.401602 122.596108 
L 457.251565 90.385213 
L 486.469269 82.816948 
L 509.592637 82.827935 
L 534.4426 68.740982 
L 559.292563 58.953833 
L 579.596461 45.099522 
" clip-path="url(#p30699e8f7d)" style="fill: none; stroke: #00b945; stroke-linecap: square"/>
   </g>
   <g id="line2d_80">
    <path d="M 123.63746 264.359956 
L 200.828495 227.416029 
L 245.982356 199.79003 
L 278.019531 179.742398 
L 302.869494 193.496721 
L 323.173392 157.43429 
L 340.340093 148.487869 
L 355.210566 139.244915 
L 380.060529 129.972758 
L 400.364427 142.173313 
L 417.531129 108.715669 
L 432.401602 98.699254 
L 457.251565 82.241908 
L 486.469269 86.745905 
L 509.592637 54.12982 
L 534.4426 39.803314 
L 559.292563 27.835703 
L 579.596461 16.2 
" clip-path="url(#p30699e8f7d)" style="fill: none; stroke: #ff9500; stroke-linecap: square"/>
   </g>
   <g id="line2d_81">
    <path d="M 123.63746 268.131047 
L 200.828495 221.187998 
L 245.982356 195.464747 
L 278.019531 179.782114 
L 302.869494 171.277443 
L 323.173392 158.455309 
L 340.340093 149.419222 
L 355.210566 139.800468 
L 380.060529 123.377614 
L 400.364427 111.063386 
L 417.531129 102.193106 
L 432.401602 92.119534 
L 457.251565 83.829895 
L 486.469269 59.401523 
L 509.592637 51.768838 
L 534.4426 43.421911 
L 559.292563 28.575119 
L 579.596461 16.278415 
" clip-path="url(#p30699e8f7d)" style="fill: none; stroke: #ff2c00; stroke-linecap: square"/>
   </g>
   <g id="patch_3">
    <path d="M 46.446424 280.8 
L 46.446424 3.6 
" style="fill: none; stroke: #000000; stroke-width: 1.5; stroke-linejoin: miter; stroke-linecap: square"/>
   </g>
   <g id="patch_4">
    <path d="M 604.446424 280.8 
L 604.446424 3.6 
" style="fill: none; stroke: #000000; stroke-width: 1.5; stroke-linejoin: miter; stroke-linecap: square"/>
   </g>
   <g id="patch_5">
    <path d="M 46.446424 280.8 
L 604.446424 280.8 
" style="fill: none; stroke: #000000; stroke-width: 1.5; stroke-linejoin: miter; stroke-linecap: square"/>
   </g>
   <g id="patch_6">
    <path d="M 46.446424 3.6 
L 604.446424 3.6 
" style="fill: none; stroke: #000000; stroke-width: 1.5; stroke-linejoin: miter; stroke-linecap: square"/>
   </g>
   <g id="legend_1">
    <g id="patch_7">
     <path d="M 56.946424 99.222979 
L 187.332788 99.222979 
Q 190.332788 99.222979 190.332788 96.222979 
L 190.332788 14.1 
Q 190.332788 11.1 187.332788 11.1 
L 56.946424 11.1 
Q 53.946424 11.1 53.946424 14.1 
L 53.946424 96.222979 
Q 53.946424 99.222979 56.946424 99.222979 
z
" style="fill: #ffffff; opacity: 0.8; stroke: #cccccc; stroke-linejoin: miter"/>
    </g>
    <g id="line2d_82">
     <path d="M 59.946424 22.35 
L 74.946424 22.35 
L 89.946424 22.35 
" style="fill: none; stroke: #0c5da5; stroke-linecap: square"/>
    </g>
    <g id="text_8">
     <!-- CascadeLake -->
     <g transform="translate(101.946424 27.6) scale(0.15 -0.15)">
      <defs>
       <path id="CMR17-43" d="M 3974 4351 
C 3974 4467 3968 4473 3930 4473 
C 3904 4473 3898 4467 3853 4390 
L 3571 3849 
C 3258 4249 2874 4480 2381 4480 
C 1286 4480 294 3507 294 2179 
C 294 837 1286 -128 2387 -128 
C 3366 -128 3974 741 3974 1482 
C 3974 1547 3974 1573 3917 1573 
C 3866 1573 3866 1553 3859 1495 
C 3808 592 3168 38 2477 38 
C 1824 38 781 502 781 2179 
C 781 3862 1843 4313 2464 4313 
C 3187 4313 3712 3681 3834 2785 
C 3846 2707 3846 2695 3904 2695 
C 3974 2695 3974 2707 3974 2824 
L 3974 4351 
z
" transform="scale(0.015625)"/>
       <path id="CMR17-64" d="M 1869 4345 
L 1869 4179 
C 2246 4179 2304 4141 2304 3843 
L 2304 2371 
C 2278 2403 2016 2816 1498 2816 
C 845 2816 211 2228 211 1376 
C 211 529 806 -64 1434 -64 
C 1978 -64 2259 361 2291 406 
L 2291 -64 
L 3066 -13 
L 3066 154 
C 2688 154 2630 193 2630 503 
L 2630 4416 
L 1869 4345 
z
M 2291 762 
C 2291 568 2176 393 2029 264 
C 1811 70 1594 38 1472 38 
C 1286 38 621 135 621 1369 
C 621 2636 1363 2713 1530 2713 
C 1824 2713 2061 2545 2208 2313 
C 2291 2177 2291 2157 2291 2041 
L 2291 762 
z
" transform="scale(0.015625)"/>
       <path id="CMR17-4c" d="M 3469 1612 
L 3354 1612 
C 3302 981 3219 166 2125 166 
L 1530 166 
C 1274 166 1261 198 1261 414 
L 1261 3892 
C 1261 4121 1274 4185 1760 4185 
L 1901 4185 
L 1901 4352 
C 1638 4339 1331 4339 1069 4339 
C 870 4339 512 4339 326 4352 
L 326 4185 
C 768 4185 838 4185 838 3898 
L 838 453 
C 838 166 768 166 326 166 
L 326 0 
L 3315 0 
L 3469 1612 
z
" transform="scale(0.015625)"/>
       <path id="CMR17-6b" d="M 1670 1679 
C 1664 1692 1632 1730 1632 1749 
C 1632 1762 2086 2175 2144 2226 
C 2509 2532 2739 2563 2906 2570 
L 2906 2735 
C 2867 2735 2854 2735 2848 2729 
L 2534 2722 
C 2355 2722 2080 2722 1907 2735 
L 1907 2570 
C 1997 2563 2061 2513 2061 2423 
C 2061 2296 1933 2175 1926 2175 
L 960 1298 
L 960 4416 
L 198 4345 
L 198 4179 
C 576 4179 634 4141 634 3835 
L 634 439 
C 634 198 608 166 198 166 
L 198 0 
C 352 12 634 12 794 12 
C 954 12 1235 12 1389 0 
L 1389 166 
C 979 166 954 191 954 439 
L 954 1139 
L 1395 1540 
L 2042 586 
C 2118 471 2182 382 2182 299 
C 2182 185 2067 166 1990 166 
L 1990 0 
C 2144 12 2419 12 2579 12 
C 2694 12 2931 6 3040 0 
L 3040 166 
C 2739 166 2669 223 2477 503 
L 1670 1679 
z
" transform="scale(0.015625)"/>
      </defs>
      <use xlink:href="#CMR17-43" transform="scale(0.996264)"/>
      <use xlink:href="#CMR17-61" transform="translate(66.509881 0) scale(0.996264)"/>
      <use xlink:href="#CMR17-73" transform="translate(112.200358 0) scale(0.996264)"/>
      <use xlink:href="#CMR17-63" transform="translate(148.001695 0) scale(0.996264)"/>
      <use xlink:href="#CMR17-61" transform="translate(188.487356 0) scale(0.996264)"/>
      <use xlink:href="#CMR17-64" transform="translate(234.177833 0) scale(0.996264)"/>
      <use xlink:href="#CMR17-65" transform="translate(285.073203 0) scale(0.996264)"/>
      <use xlink:href="#CMR17-4c" transform="translate(325.558863 0) scale(0.996264)"/>
      <use xlink:href="#CMR17-61" transform="translate(382.940271 0) scale(0.996264)"/>
      <use xlink:href="#CMR17-6b" transform="translate(428.630748 0) scale(0.996264)"/>
      <use xlink:href="#CMR17-65" transform="translate(474.32121 0) scale(0.996264)"/>
     </g>
    </g>
    <g id="line2d_83">
     <path d="M 59.946424 43.255745 
L 74.946424 43.255745 
L 89.946424 43.255745 
" style="fill: none; stroke: #00b945; stroke-linecap: square"/>
    </g>
    <g id="text_9">
     <!-- grvingt  -->
     <g transform="translate(101.946424 48.505745) scale(0.15 -0.15)">
      <defs>
       <path id="CMR17-67" d="M 710 1165 
C 832 1068 1043 960 1299 960 
C 1805 960 2240 1359 2240 1895 
C 2240 2063 2189 2321 1997 2521 
C 2176 2713 2438 2777 2586 2777 
C 2611 2777 2650 2777 2682 2758 
C 2656 2751 2598 2726 2598 2623 
C 2598 2540 2656 2483 2739 2483 
C 2835 2483 2886 2547 2886 2630 
C 2886 2751 2790 2880 2586 2880 
C 2330 2880 2106 2758 1926 2591 
C 1734 2764 1504 2828 1299 2828 
C 794 2828 358 2431 358 1895 
C 358 1527 570 1294 634 1230 
C 442 1004 442 742 442 710 
C 442 544 506 300 723 166 
C 390 82 128 -184 128 -517 
C 128 -996 736 -1344 1466 -1344 
C 2170 -1344 2803 -1009 2803 -510 
C 2803 384 1856 384 1363 384 
C 1216 384 954 384 922 390 
C 723 422 589 601 589 825 
C 589 883 589 1024 710 1165 
z
M 1299 1068 
C 736 1068 736 1766 736 1895 
C 736 2024 736 2719 1299 2719 
C 1862 2719 1862 2024 1862 1895 
C 1862 1766 1862 1068 1299 1068 
z
M 1466 -1236 
C 826 -1236 384 -883 384 -517 
C 384 -311 493 -118 634 -11 
C 794 102 858 102 1293 102 
C 1818 102 2547 102 2547 -517 
C 2547 -883 2106 -1236 1466 -1236 
z
" transform="scale(0.015625)"/>
       <path id="CMR17-76" d="M 2502 2173 
C 2560 2315 2662 2572 3034 2585 
L 3034 2752 
C 2912 2745 2752 2739 2630 2739 
C 2496 2739 2285 2739 2157 2752 
L 2157 2585 
C 2317 2572 2406 2495 2406 2328 
C 2406 2270 2406 2257 2368 2167 
L 1664 379 
L 902 2308 
C 864 2392 864 2405 864 2431 
C 864 2585 1075 2585 1171 2585 
L 1171 2752 
C 1018 2739 736 2739 576 2739 
C 403 2739 205 2739 64 2752 
L 64 2585 
C 307 2585 442 2585 518 2386 
L 1446 44 
C 1485 -52 1491 -64 1549 -64 
C 1606 -64 1613 -52 1651 44 
L 2502 2173 
z
" transform="scale(0.015625)"/>
       <path id="CMR17-69" d="M 992 3961 
C 992 4102 877 4224 730 4224 
C 589 4224 467 4108 467 3961 
C 467 3820 582 3699 730 3699 
C 870 3699 992 3814 992 3961 
z
M 243 2745 
L 243 2579 
C 602 2579 653 2540 653 2231 
L 653 443 
C 653 198 627 166 218 166 
L 218 0 
C 371 12 646 12 806 12 
C 960 12 1222 12 1370 0 
L 1370 166 
C 992 166 979 205 979 436 
L 979 2816 
L 243 2745 
z
" transform="scale(0.015625)"/>
       <path id="CMR17-6e" d="M 2656 1954 
C 2656 2282 2592 2816 1837 2816 
C 1331 2816 1069 2424 973 2166 
L 966 2166 
L 966 2816 
L 211 2745 
L 211 2578 
C 589 2578 646 2540 646 2231 
L 646 443 
C 646 198 621 166 211 166 
L 211 0 
C 365 12 646 12 813 12 
C 979 12 1267 12 1421 0 
L 1421 166 
C 1011 166 986 192 986 443 
L 986 1678 
C 986 2269 1344 2713 1792 2713 
C 2266 2713 2317 2289 2317 1980 
L 2317 443 
C 2317 198 2291 166 1882 166 
L 1882 0 
C 2035 12 2317 12 2483 12 
C 2650 12 2938 12 3091 0 
L 3091 166 
C 2682 166 2656 192 2656 443 
L 2656 1954 
z
" transform="scale(0.015625)"/>
      </defs>
      <use xlink:href="#CMR17-67" transform="scale(0.996264)"/>
      <use xlink:href="#CMR17-72" transform="translate(45.690477 0) scale(0.996264)"/>
      <use xlink:href="#CMR17-76" transform="translate(80.971245 0) scale(0.996264)"/>
      <use xlink:href="#CMR17-69" transform="translate(129.264161 0) scale(0.996264)"/>
      <use xlink:href="#CMR17-6e" transform="translate(154.135219 0) scale(0.996264)"/>
      <use xlink:href="#CMR17-67" transform="translate(205.030589 0) scale(0.996264)"/>
      <use xlink:href="#CMR17-74" transform="translate(250.721066 0) scale(0.996264)"/>
     </g>
    </g>
    <g id="line2d_84">
     <path d="M 59.946424 64.161489 
L 74.946424 64.161489 
L 89.946424 64.161489 
" style="fill: none; stroke: #ff9500; stroke-linecap: square"/>
    </g>
    <g id="text_10">
     <!-- grvingt 2 -->
     <g transform="translate(101.946424 69.411489) scale(0.15 -0.15)">
      <use xlink:href="#CMR17-67" transform="scale(0.996264)"/>
      <use xlink:href="#CMR17-72" transform="translate(45.690477 0) scale(0.996264)"/>
      <use xlink:href="#CMR17-76" transform="translate(80.971245 0) scale(0.996264)"/>
      <use xlink:href="#CMR17-69" transform="translate(129.264161 0) scale(0.996264)"/>
      <use xlink:href="#CMR17-6e" transform="translate(154.135219 0) scale(0.996264)"/>
      <use xlink:href="#CMR17-67" transform="translate(205.030589 0) scale(0.996264)"/>
      <use xlink:href="#CMR17-74" transform="translate(250.721066 0) scale(0.996264)"/>
      <use xlink:href="#CMR17-32" transform="translate(316.0778 0) scale(0.996264)"/>
     </g>
    </g>
    <g id="line2d_85">
     <path d="M 59.946424 85.067234 
L 74.946424 85.067234 
L 89.946424 85.067234 
" style="fill: none; stroke: #ff2c00; stroke-linecap: square"/>
    </g>
    <g id="text_11">
     <!-- grvingt 3 -->
     <g transform="translate(101.946424 90.317234) scale(0.15 -0.15)">
      <defs>
       <path id="CMR17-33" d="M 1414 2176 
C 1984 2176 2234 1673 2234 1094 
C 2234 322 1824 25 1453 25 
C 1114 25 563 193 390 691 
C 422 678 454 678 486 678 
C 640 678 755 780 755 947 
C 755 1132 614 1216 486 1216 
C 378 1216 211 1164 211 927 
C 211 335 787 -128 1466 -128 
C 2176 -128 2720 432 2720 1087 
C 2720 1718 2208 2176 1600 2246 
C 2086 2347 2554 2776 2554 3353 
C 2554 3856 2048 4224 1472 4224 
C 890 4224 378 3862 378 3347 
C 378 3123 544 3084 627 3084 
C 762 3084 877 3167 877 3334 
C 877 3500 762 3584 627 3584 
C 602 3584 570 3584 544 3571 
C 730 3999 1235 4076 1459 4076 
C 1683 4076 2106 3966 2106 3347 
C 2106 3167 2080 2851 1862 2574 
C 1670 2329 1453 2316 1242 2297 
C 1210 2297 1062 2284 1037 2284 
C 992 2278 966 2272 966 2227 
C 966 2182 973 2176 1101 2176 
L 1414 2176 
z
" transform="scale(0.015625)"/>
      </defs>
      <use xlink:href="#CMR17-67" transform="scale(0.996264)"/>
      <use xlink:href="#CMR17-72" transform="translate(45.690477 0) scale(0.996264)"/>
      <use xlink:href="#CMR17-76" transform="translate(80.971245 0) scale(0.996264)"/>
      <use xlink:href="#CMR17-69" transform="translate(129.264161 0) scale(0.996264)"/>
      <use xlink:href="#CMR17-6e" transform="translate(154.135219 0) scale(0.996264)"/>
      <use xlink:href="#CMR17-67" transform="translate(205.030589 0) scale(0.996264)"/>
      <use xlink:href="#CMR17-74" transform="translate(250.721066 0) scale(0.996264)"/>
      <use xlink:href="#CMR17-33" transform="translate(316.0778 0) scale(0.996264)"/>
     </g>
    </g>
   </g>
  </g>
 </g>
 <defs>
  <clipPath id="p30699e8f7d">
   <rect x="46.446424" y="3.6" width="558" height="277.2"/>
  </clipPath>
 </defs>
</svg>
